<svg xmlns="http://www.w3.org/2000/svg" viewBox="0 0 539.19 583.82"><defs><style>.a{fill:#fff;}.b,.d,.e{fill:none;stroke-miterlimit:10;}.b{stroke:#fa7300;stroke-width:19.82px;}.c{fill:#454545;}.d,.e{stroke:#000;}.d{stroke-width:3.27px;}.e{stroke-width:0.82px;}</style></defs><title>LogoMark</title><path class="a" d="M461.3,9.91c49.22,0,82.09,50.73,62,95.65L331.57,533.75c-24,53.55-100,53.55-123.95,0L15.91,105.56C-4.2,60.64,28.67,9.91,77.89,9.91Z"/><path class="b" d="M331.57,533.75,523.28,105.56c20.11-44.92-12.76-95.65-62-95.65H77.89c-49.22,0-82.09,50.73-62,95.65L207.62,533.75C231.59,587.3,307.6,587.3,331.57,533.75Z"/><path class="c" d="M420.18,277.45l-3.24,24.62-11.49,22.11,1.79,2.88L406.78,373c-.57,1.63-1.07,3.31-1.55,5-.94,2.39-1.86,4.77-2.74,7.17H390.7L403.09,381l1.28-52.14-4.15-5.21h-4.85v-3.6c.24,0,9.16-25.36,9.16-25.36h-2.87l-1,.83-2.27-2.63,6.11-7.9H345l3.43,21h26.42l.12,3.42-35.18,1.26-82,46.93,4.13-5.05-3.23-5.21-6.83-.89-22.65-.72.18,24.8-2.17,2.08-2.34-2.43.18-28.58h23.75l12.57-60.41-6.64-12.59h-34l-5.21,15.64-10.43,55.38-2.52-.54,9.72-54.84-6.31-7-.36-13.13,52.87-5,77.31,10.41,7.36,7.93Zm-85.76,30.91,2-25.71-55.56-6.84c-3.59.72-5.93,5.77-5.93,5.77l-9.18,57.35,9.72-4.33v8.28Z"/><polygon class="a" points="404.53 284.99 398.42 292.89 395.37 287.69 387.11 287.69 374.87 306.02 348.45 306.02 345.02 284.99 404.53 284.99"/><path class="a" d="M401.66,294.69h2.87s-8.92,25.36-9.16,25.36c-.18-.18-7.73,0-7.73,0l-17.08,18.16H354.92l-7.37,7-8.28-4-59,38.47-32.91,10.6-26.52,29.33-2.42,2.68-9.52,20.14h-8.46V458l-8.8-5.58,1-24.81L157,408.14l-.9,3.6,5.21,2.87-5.21,8.28L148.15,420l.16-2.32,1.83-27.36,37.74-38.11,13-8.27,3.06,18.16-5,4.13-5.21-2.33,5.39,7.54-11.88,11.16-5.74-1.44,6.1-10.26-11.31,11.34,28.94,11.49,22.11-21.11,2.17-2.08-.18-24.8,22.65.72,6.83.89,3.23,5.21-4.13,5.05,82-46.93L375,309.44l9.94-.36,15.76-13.56Z"/><path class="a" d="M400.22,323.65l4.15,5.21L403.09,381l-12.39,4.13h11.79c-2,5.26-3.81,10.55-5.6,15.86-.57,1.34-1.13,2.66-1.67,4l-6-13.41s-27-7.37-32.55-8.62-5.74,0-5.74,0-102.48,50.33-110.58,54.48a62.37,62.37,0,0,0-7.3,4.46l-1.15-2.49V424.87l12.58-4H231.94v-8.1l14.75-15.27,7.55,4.38-.54,6.58-3.38,1.8-5.08-1.62,4.15,6.66,88.8-47.83,3.6-.36.9,4.41h2.53l1.6-4.39,3.43,1.24,10.6-.18,12.23-25.89,17.62-18.69h9.52Z"/><polygon class="c" points="398.42 292.89 400.69 295.52 384.93 309.08 374.99 309.44 374.87 306.02 387.11 287.69 395.37 287.69 398.42 292.89"/><path class="c" d="M395.37,320.05v3.6H390.7l-17.62,18.69-12.23,25.89-10.6.18,2.15-3.05h4l11-21.76-11.87-.18-8.64,23.75-1.6,4.39h-2.53l-.9-4.41-3.6.36-88.8,47.83-4.15-6.66,5.08,1.62,3.38-1.8.54-6.58-7.55-4.38-14.75,15.27v8.1h12.58l-12.58,4v14.56l-3.77-4.13v-9.72l-4.33-3.23-3-2.68,26.52-29.33,32.91-10.6,59-38.47,8.28,4,7.37-7h15.64l17.08-18.16S395.19,319.87,395.37,320.05Z"/><path class="c" d="M389.26,391.6l6,13.41a69.77,69.77,0,0,0-3.72,11.72,5.24,5.24,0,0,0-.12,1c-.6,1.87-1.2,3.75-1.82,5.63-3.91-8-8.86-17.49-11.63-20.33,0,0-1.24-2.52-5.93,0L264.66,460.83s-9.88,7.36-13.48,16.9,5.21,16,5.21,16a43.18,43.18,0,0,0,7.73,0c3.72-.27,72.44-17.75,104.38-25.91h0c-2.09,4.05-4,8.15-5.75,12.38l-95,26.29c-10.62,2.33-13.31.72-13.31.72-14.57-2.52-33.09-24.09-33.09-24.09h-6.11l11.32,25.16c3.43,7.39-5.21,11.88-5.21,11.88L118.67,546.58l-64.9-92.94,8.45-3.43v-6.29l55.55-40.87,22.12,18.22,5.39-3.77,3,.2-.16,2.32,7.92,2.87,5.21-8.28-5.21-2.87.9-3.6,35.68,19.42-1,24.81,8.8,5.58V442.49h8.46l9.52-20.14,2.42-2.68,3,2.68-9.7,18.88,10.24,7.54a96.72,96.72,0,0,1,8.71-6.85,62.37,62.37,0,0,1,7.3-4.46C248.49,433.31,351,383,351,383s.17-1.26,5.74,0S389.26,391.6,389.26,391.6ZM132.42,524.83l60.23-53.4-78-53.13,67.51,54L168.2,485.18,147.89,472l15.82,18Z"/><path class="a" d="M389.56,423.38l-1.7,5.23c-4.54,13.91-12.61,26.24-19.34,39.21h0c-31.94,8.16-100.66,25.64-104.38,25.91a43.18,43.18,0,0,1-7.73,0s-8.8-6.48-5.21-16,13.48-16.9,13.48-16.9L372,403.05c4.69-2.52,5.93,0,5.93,0C380.7,405.89,385.65,415.41,389.56,423.38Z"/><polygon class="a" points="367.33 343.6 356.35 365.36 352.4 365.36 350.25 368.41 346.82 367.17 355.46 343.42 367.33 343.6"/><path class="a" d="M336.4,282.65l-2,25.71-59,34.52V334.6l-9.72,4.33,9.18-57.35s2.34-5.05,5.93-5.77Z"/><polygon class="a" points="254.78 268.63 261.42 281.22 248.85 341.63 225.1 341.63 224.92 370.2 219.17 375.6 210.01 375.6 205.15 339.65 215.58 284.27 220.79 268.63 254.78 268.63"/><path class="a" d="M231.94,439.43l1.15,2.49a96.72,96.72,0,0,0-8.71,6.85l-10.24-7.54,9.7-18.88,4.33,3.23v9.72Z"/><polygon class="c" points="224.92 370.2 227.26 372.64 205.15 393.75 176.21 382.26 187.52 370.92 181.42 381.18 187.16 382.62 199.04 371.46 193.65 363.92 198.86 366.25 203.89 362.12 200.83 343.96 187.88 352.23 150.14 390.34 148.31 417.7 145.28 417.5 146.35 388.73 186.63 349.17 202.63 339.11 205.15 339.65 210.01 375.6 219.17 375.6 224.92 370.2"/><polygon class="a" points="192.65 471.43 132.42 524.83 163.71 489.94 147.89 471.96 168.2 485.18 182.13 472.32 114.62 418.3 192.65 471.43"/><path class="d" d="M406.78,373l.46-45.91-1.79-2.88,11.49-22.11,3.24-24.62h-77l-7.36-7.93-77.31-10.41-52.87,5,.36,13.13,6.31,7-9.72,54.84-16,10.06-40.28,39.55-1.07,28.78-5.39,3.77-22.12-18.22L62.22,443.92v6.29l-8.45,3.43,64.9,92.94,102.66-26.42s8.64-4.49,5.21-11.88l-11.32-25.16h6.11s18.52,21.57,33.09,24.09c0,0,2.69,1.61,13.31-.72l95-26.29"/><polygon class="e" points="132.42 524.83 192.65 471.43 114.62 418.3 182.13 472.32 168.2 485.18 147.89 471.96 163.71 489.94 132.42 524.83"/><path class="e" d="M389.56,423.38c-3.91-8-8.86-17.49-11.63-20.33,0,0-1.24-2.52-5.93,0L264.66,460.83s-9.88,7.36-13.48,16.9,5.21,16,5.21,16a43.18,43.18,0,0,0,7.73,0c3.72-.27,72.44-17.75,104.38-25.91"/><path class="e" d="M402.49,385.13H390.7L403.09,381l1.28-52.14-4.15-5.21H390.7l-17.62,18.69-12.23,25.89-10.6.18,2.15-3.05h4l11-21.76-11.87-.18-8.64,23.75-1.6,4.39h-2.53l-.9-4.41-3.6.36-88.8,47.83-4.15-6.66,5.08,1.62,3.38-1.8.54-6.58-7.55-4.38-14.75,15.27v8.1h12.58l-12.58,4v14.56l-3.77-4.13v-9.72l-4.33-3.23-9.7,18.88,10.24,7.54a96.72,96.72,0,0,1,8.71-6.85,62.37,62.37,0,0,1,7.3-4.46C248.49,433.31,351,383,351,383s.17-1.26,5.74,0,32.55,8.62,32.55,8.62l6,13.41"/><polygon class="e" points="374.87 306.02 348.45 306.02 345.02 284.99 404.53 284.99 398.42 292.89 395.37 287.69 387.11 287.69 374.87 306.02"/><path class="e" d="M400.69,295.52l1-.83h2.87s-8.92,25.36-9.16,25.36c-.18-.18-7.73,0-7.73,0l-17.08,18.16H354.92l-7.37,7-8.28-4-59,38.47-32.91,10.6-26.52,29.33-2.42,2.68-9.52,20.14h-8.46V458l-8.8-5.58,1-24.81L157,408.14l-.9,3.6,5.21,2.87-5.21,8.28L148.15,420l.16-2.32,1.83-27.36,37.74-38.11,13-8.27,3.06,18.16-5,4.13-5.21-2.33,5.39,7.54-11.88,11.16-5.74-1.44,6.1-10.26-11.31,11.34,28.94,11.49,22.11-21.11,2.17-2.08-.18-24.8,22.65.72,6.83.89,3.23,5.21-4.13,5.05,82-46.93L375,309.44l9.94-.36Z"/><path class="e" d="M336.4,282.65l-2,25.71-59,34.52V334.6l-9.72,4.33,9.18-57.35s2.34-5.05,5.93-5.77Z"/><polygon class="e" points="205.15 339.65 215.58 284.27 220.79 268.63 254.78 268.63 261.42 281.22 248.85 341.63 225.1 341.63 224.92 370.2 219.17 375.6 210.01 375.6 205.15 339.65"/><line class="b" x1="349.86" y1="492.91" x2="523.28" y2="105.56"/><path class="c" d="M123,126.91l-7.18,8.93v28.07h-42v-127h42v41H117l30.52-41h48.57L150.75,93.33,199,163.91H148.07l-24.23-37Z"/><path class="c" d="M311.77,129.91v34h-108v-127h42v93Z"/><path class="c" d="M317.77,36.91h43.31l28.29,40h1.44l28.29-40h42.67v127h-42v-67h-1.1l-28.17,37H389l-28.18-37h-1.09v67h-42Z"/><path class="c" d="M169.35,188.42A11.69,11.69,0,0,1,158,200.13H144.23V177h14A11,11,0,0,1,169.35,188.42Zm-7.79,0c0-3.73-2.34-5.25-5.91-5.25H152V194h4A5.37,5.37,0,0,0,161.56,188.38Z"/><path class="c" d="M171.65,180.16h6.77v20h-6.77Z"/><path class="c" d="M198,192.51l4.39,7.62h-7.13l-4-7.36h-3.06v7.36h-6.77v-20h14.36c3.2,0,6.66,1.92,6.66,6.24A6.28,6.28,0,0,1,198,192.51Zm-9.8-5h6.7a1,1,0,0,0,1-1,.94.94,0,0,0-1-1h-6.7Z"/><path class="c" d="M210.4,185.51h-6.67v-5.35h20.1v5.35h-6.67v14.62H210.4Z"/><path class="c" d="M233.4,177h8.28l2.77,12.74h.27l4.78-6.64h.33l4.79,6.64h.26L257.66,177h8.28l-5.41,23.1h-7.07L249.7,194h-.13l-3.7,6.1h-7.06Z"/><path class="c" d="M266.76,190.13a10.32,10.32,0,1,1,10.33,10.33A10.32,10.32,0,0,1,266.76,190.13Zm14,0a3.65,3.65,0,1,0-3.63,3.66A3.62,3.62,0,0,0,280.72,190.1Z"/><path class="c" d="M306.43,192.51l4.39,7.62h-7.13l-4-7.36h-3.07v7.36h-6.76v-20h14.36c3.2,0,6.66,1.92,6.66,6.24A6.28,6.28,0,0,1,306.43,192.51Zm-9.81-5h6.71a1,1,0,0,0,1-1,.94.94,0,0,0-1-1h-6.71Z"/><path class="c" d="M321.08,193.23,320,194.49v5.64h-6.76v-20H320v6.21h.24l5.51-6.21H333l-7.53,8.29,8,11.68H326l-4.69-6.9Z"/><path class="c" d="M334.94,194.79h11.48c.86,0,1.22-.47,1.22-1s-.39-.95-1.25-.95h-5.18c-3.77,0-6.64-1.92-6.64-6.31,0-4.62,3.8-6.34,7-6.34h11.95v5.35H342.63c-.83,0-1.16.43-1.16,1s.33,1,1.16,1h4.42c4.75,0,7.49,2.44,7.49,6.17s-2.84,6.5-7.39,6.5H334.94Z"/><path class="c" d="M383.51,200.13l-1.65-1.81a13,13,0,0,1-7.09,2.14c-5.22,0-8.19-3.36-8.19-7.75a7,7,0,0,1,4.95-6.77,8.62,8.62,0,0,1-.33-2.47c0-3.73,2.84-6.44,7.53-6.44h5.44l0,6.1h-4c-.79,0-1.15.3-1.15,1,0,.89.56,1.68,1.78,3l1.61,1.71,1.39-1.48h8.12l-5.28,6,6.3,6.73Zm-6.1-6.6-1.75-1.91h-.13c-1,0-1.55.56-1.55,1.19s.43,1.22,1.51,1.22A4.93,4.93,0,0,0,377.41,193.53Z"/><path class="c" d="M96.73,219h12c1,0,1.52-.47,1.52-1.22s-.49-1.19-1.55-1.19h-5.48c-3.86,0-7-2.64-7-7.3,0-5.34,3.66-7.29,7.36-7.29h13.66v6.1H105.51c-.89,0-1.52.34-1.52,1.16s.63,1.22,1.52,1.22h5.15c4.42,0,7.36,2.61,7.36,7.26,0,4.39-3.3,7.36-7.6,7.36H96.63Z"/><path class="c" d="M120.49,205.16h6.76l8.95,10.57h.23V205.16h6.76v20h-6.76l-8.91-10.29h-.27v10.29h-6.76Z"/><path class="c" d="M145.67,215.13A10.31,10.31,0,1,1,156,225.46,10.32,10.32,0,0,1,145.67,215.13Zm14,0a3.65,3.65,0,1,0-3.63,3.66A3.62,3.62,0,0,0,159.63,215.1Z"/><path class="c" d="M166.85,205.16h7.39l2.35,11.46h.26l4.52-6.11h.33l4.53,6.11h.26l2.34-11.46h7.4l-4.19,20H185.4l-3.76-5.34h-.2l-3.76,5.34H171Z"/><path class="c" d="M218.37,216.58h-3.63v8.55H207V202h16.34c4.69,0,7.53,2.71,7.53,7.33a7.23,7.23,0,0,1-4.79,6.63l5.54,9.14h-8.38Zm-3.63-6h7.16a1.19,1.19,0,0,0,1.25-1.25,1.11,1.11,0,0,0-1.25-1.19h-7.16Z"/><path class="c" d="M240.71,210.51v2h12.21v5.35H240.71v2h12.21v5.34h-19v-20h19v5.35Z"/><path class="c" d="M255.89,205.16h6.86l4.95,6.31H268l4.95-6.31h6.86v20H273V214h-.2L268,219.42h-.33L262.85,214h-.2v11.09h-6.76Z"/><path class="c" d="M282.25,215.13a10.32,10.32,0,1,1,10.33,10.33A10.32,10.32,0,0,1,282.25,215.13Zm14,0a3.65,3.65,0,1,0-3.63,3.66A3.62,3.62,0,0,0,296.21,215.1Z"/><path class="c" d="M302.55,205.16h7.66l4.09,14.63h.33l4.09-14.63h7.66l-6.67,20H309.22Z"/><path class="c" d="M338.92,222.82h-7.2l-.66,2.31h-7.59l6.67-20H340.5l6.67,20h-7.59Zm-1.49-5.34-1.94-7h-.33l-2,7Z"/><path class="c" d="M366.21,219.79v5.34H348.55v-20h6.77v14.63Z"/><path class="c" d="M397.16,219v6.1H377.43V202h7.72v17Z"/><path class="c" d="M418.88,219v6.1H399.14V202h7.72v17Z"/><path class="c" d="M419.53,213.55a11.93,11.93,0,0,1,20.53-8.22l-5.38,5.45a4.2,4.2,0,0,0-3.23-1.49,4.28,4.28,0,0,0,0,8.55,4.19,4.19,0,0,0,3.17-1.45l5.44,5.41a11.93,11.93,0,0,1-20.53-8.25Z"/></svg>